<svg width="50" height="50" viewBox="0 0 50 50" fill="none" xmlns="http://www.w3.org/2000/svg">
<path d="M49.8709 10.9644C49.6455 9.82905 49.1421 8.79009 48.4391 7.93179C48.2908 7.74478 48.1359 7.57729 47.9681 7.40981C46.7225 6.15806 44.9742 5.3772 43.0644 5.3772H6.93564C5.02578 5.3772 3.28379 6.15806 2.03232 7.40981C1.86484 7.57729 1.70996 7.74478 1.56133 7.93179C0.85791 8.78999 0.354492 9.82905 0.135352 10.9644C0.0453125 11.4026 0 11.8554 0 12.3132V37.6875C0 38.661 0.206445 39.5967 0.574609 40.4417C0.916113 41.2484 1.41963 41.9783 2.03223 42.5903C2.1875 42.7452 2.3417 42.8875 2.50996 43.0292C3.70977 44.0228 5.2585 44.6229 6.93564 44.6229H43.0644C44.7421 44.6229 46.2976 44.0228 47.4904 43.0229C47.6582 42.8875 47.8132 42.7452 47.9681 42.5903C48.5804 41.9783 49.0838 41.2484 49.4323 40.4417V40.4355C49.8004 39.5905 49.9999 38.661 49.9999 37.6876V12.3132C50 11.8554 49.9554 11.4026 49.8709 10.9644ZM4.54189 9.91909C5.16152 9.30015 5.99365 8.92544 6.93564 8.92544H43.0644C44.0063 8.92544 44.8458 9.30015 45.4581 9.91909C45.5677 10.0293 45.6709 10.1522 45.762 10.2743L26.8258 26.7777C26.3035 27.2354 25.6584 27.4615 25 27.4615C24.3482 27.4615 23.7035 27.2354 23.1743 26.7777L4.24531 10.2672C4.3291 10.1452 4.43232 10.0293 4.54189 9.91909ZM3.54824 37.6875V13.939L17.2518 25.8936L3.55518 37.8355C3.54824 37.7902 3.54824 37.7392 3.54824 37.6875ZM43.0644 41.074H6.93564C6.32227 41.074 5.74834 40.9127 5.2585 40.6294L19.7095 28.0358L21.0586 29.2094C22.1876 30.1905 23.6004 30.6874 25 30.6874C26.4068 30.6874 27.8195 30.1905 28.9484 29.2094L30.2969 28.0358L44.7422 40.6294C44.2517 40.9127 43.6777 41.074 43.0644 41.074ZM46.4518 37.6875C46.4518 37.7392 46.4518 37.7902 46.4451 37.8355L32.7486 25.9005L46.4518 13.9454V37.6875Z" fill="black"/>
</svg>
