<svg width="50" height="50" viewBox="0 0 50 50" fill="none" xmlns="http://www.w3.org/2000/svg">
<g clip-path="url(#clip0_17_14)">
<path d="M40.625 18.7499H36.4583V13.5416C36.4583 10.5026 35.2511 7.58817 33.1023 5.43932C30.9534 3.29047 28.0389 2.08325 25 2.08325H22.9167C19.8777 2.08325 16.9633 3.29047 14.8144 5.43932C12.6656 7.58817 11.4583 10.5026 11.4583 13.5416V18.7499H7.29168C6.73914 18.7499 6.20924 18.9694 5.81854 19.3601C5.42784 19.7508 5.20834 20.2807 5.20834 20.8333V45.8333C5.20834 46.3858 5.42784 46.9157 5.81854 47.3064C6.20924 47.6971 6.73914 47.9166 7.29168 47.9166H40.625C41.1775 47.9166 41.7074 47.6971 42.0981 47.3064C42.4889 46.9157 42.7083 46.3858 42.7083 45.8333V20.8333C42.7083 20.2807 42.4889 19.7508 42.0981 19.3601C41.7074 18.9694 41.1775 18.7499 40.625 18.7499ZM15.625 13.5416C15.625 11.6077 16.3932 9.75305 17.7607 8.3856C19.1281 7.01815 20.9828 6.24992 22.9167 6.24992H25C26.9339 6.24992 28.7885 7.01815 30.156 8.3856C31.5234 9.75305 32.2917 11.6077 32.2917 13.5416V18.7499H15.625V13.5416ZM38.5417 43.7499H9.37501V22.9166H38.5417V43.7499Z" fill="black"/>
<path d="M15.625 36.4583C17.3509 36.4583 18.75 35.0591 18.75 33.3333C18.75 31.6074 17.3509 30.2083 15.625 30.2083C13.8991 30.2083 12.5 31.6074 12.5 33.3333C12.5 35.0591 13.8991 36.4583 15.625 36.4583Z" fill="black"/>
<path d="M23.9583 36.4583C25.6842 36.4583 27.0833 35.0591 27.0833 33.3333C27.0833 31.6074 25.6842 30.2083 23.9583 30.2083C22.2325 30.2083 20.8333 31.6074 20.8333 33.3333C20.8333 35.0591 22.2325 36.4583 23.9583 36.4583Z" fill="black"/>
<path d="M32.2917 36.4583C34.0176 36.4583 35.4167 35.0591 35.4167 33.3333C35.4167 31.6074 34.0176 30.2083 32.2917 30.2083C30.5658 30.2083 29.1667 31.6074 29.1667 33.3333C29.1667 35.0591 30.5658 36.4583 32.2917 36.4583Z" fill="black"/>
</g>
<defs>
<clipPath id="clip0_17_14">
<rect width="50" height="50" fill="white"/>
</clipPath>
</defs>
</svg>
